<svg xmlns="http://www.w3.org/2000/svg" version="1.1" xmlns:xlink="http://www.w3.org/1999/xlink" xmlns:svgjs="http://svgjs.dev/svgjs" width="1500" height="1500" viewBox="0 0 1500 1500"><rect width="1500" height="1500" fill="#ffffff"></rect><g transform="matrix(0.6666666666666666,0,0,0.6666666666666666,248.82000542628703,405.55913978494624)"><svg viewBox="0 0 361 248" data-background-color="#ffffff" preserveAspectRatio="xMidYMid meet" height="1030" width="1500" xmlns="http://www.w3.org/2000/svg" xmlns:xlink="http://www.w3.org/1999/xlink"><g id="tight-bounds" transform="matrix(1,0,0,1,0.4259780411103975,0.4000000000000057)"><svg viewBox="0 0 360.1480439177792 247.2" height="247.2" width="360.1480439177792"><g><svg viewBox="0 0 395.52 271.4787589470323" height="247.2" width="360.1480439177792"><g transform="matrix(1,0,0,1,0,129.8153863980127)"><svg viewBox="0 0 395.52 141.6633725490196" height="141.6633725490196" width="395.52"><g id="textblocktransform"><svg viewBox="0 0 395.52 141.6633725490196" height="141.6633725490196" width="395.52" id="textblock"><g><svg viewBox="0 0 395.52 141.6633725490196" height="141.6633725490196" width="395.52"><g transform="matrix(1,0,0,1,0,0)"><svg width="395.52" viewBox="3.5 -42.3 152.99 54.8" height="141.6633725490196" data-palette-color="#005cac"><path d="M19.8-29.1Q23.6-29.1 26.53-27.43 29.45-25.75 31.13-22.38 32.8-19 32.8-14.15L32.8-14.15Q32.8-9.25 31.13-5.88 29.45-2.5 26.53-0.83 23.6 0.85 19.8 0.85L19.8 0.85Q15.75 0.85 12.2-1.85L12.2-1.85 12.2 0 3.5 0 3.5-42.3 12.2-42.3 12.2-26.4Q15.75-29.1 19.8-29.1L19.8-29.1ZM17.9-6.85Q20.8-6.85 22.28-8.7 23.75-10.55 23.75-14.15L23.75-14.15Q23.75-17.7 22.28-19.55 20.8-21.4 17.9-21.4L17.9-21.4Q15.05-21.4 12.2-19.35L12.2-19.35 12.2-8.9Q15.05-6.85 17.9-6.85L17.9-6.85ZM54.45-28.9L55.6-28.9 55.6-21.2 54.45-21.2Q50.6-21.2 46.75-18.45L46.75-18.45 46.75 0 38.05 0 38.05-28.3 46.75-28.3 46.75-25.8Q48.6-27.35 50.47-28.13 52.35-28.9 54.45-28.9L54.45-28.9ZM60.6-32.8L60.6-40.35 69.3-40.35 69.3-32.8 60.6-32.8ZM60.6 0L60.6-28.3 69.3-28.3 69.3 0 60.6 0ZM92.89-28.9Q98.54-28.9 101.34-26.05 104.14-23.2 104.14-17L104.14-17 104.14 0 95.44 0 95.44-17Q95.44-19.05 94.42-20.13 93.39-21.2 90.94-21.2L90.94-21.2Q88.04-21.2 84.99-18.8L84.99-18.8 84.99 0 76.29 0 76.29-28.3 84.99-28.3 84.99-26.05Q86.84-27.5 88.77-28.2 90.69-28.9 92.89-28.9L92.89-28.9ZM110.89-32.8L110.89-40.35 119.59-40.35 119.59-32.8 110.89-32.8ZM110.79 12.5Q109.44 12.5 108.27 12.33 107.09 12.15 105.39 11.8L105.39 11.8 105.39 4.4Q106.69 4.8 108.34 4.8L108.34 4.8Q109.79 4.8 110.34 4.13 110.89 3.45 110.89 1.8L110.89 1.8 110.89-28.45 119.59-28.45 119.59 4.95Q119.59 8.6 117.42 10.55 115.24 12.5 110.79 12.5L110.79 12.5ZM126.59-32.8L126.59-40.35 135.29-40.35 135.29-32.8 126.59-32.8ZM126.59 0L126.59-28.3 135.29-28.3 135.29 0 126.59 0ZM151.09 0.65Q146.64 0.65 144.46-1.3 142.29-3.25 142.29-6.9L142.29-6.9 142.29-42.3 150.99-42.3 150.99-10.05Q150.99-8.4 151.54-7.73 152.09-7.05 153.54-7.05L153.54-7.05Q155.19-7.05 156.49-7.45L156.49-7.45 156.49-0.05Q154.79 0.3 153.61 0.48 152.44 0.65 151.09 0.65L151.09 0.65Z" opacity="1" transform="matrix(1,0,0,1,0,0)" fill="#000000" class="wordmark-text-0" data-fill-palette-color="primary" id="text-0"></path></svg></g></svg></g></svg></g></svg></g><g transform="matrix(1,0,0,1,75.54432,0)"><svg viewBox="0 0 244.43135999999998 96.37206406013034" height="96.37206406013034" width="244.43135999999998"><g><svg xmlns="http://www.w3.org/2000/svg" xmlns:xlink="http://www.w3.org/1999/xlink" version="1.1" x="0" y="0" viewBox="8.032073384665733 32.91459615782493 85.9445672983013 33.885403842175066" enable-background="new 0 0 100 100" xml:space="preserve" height="96.37206406013034" width="244.43135999999998" class="icon-icon-0" data-fill-palette-color="accent" id="icon-0"><path d="M93.9 43.4C93.5 41.9 91.5 41.1 90.3 40.6 88.3 39.8 86.3 39.3 84.2 38.9 79.7 38 75.1 37.5 70.5 37.1 68.3 35.6 65.4 35.4 63.1 36.6 62.6 36.6 62.1 36.5 61.5 36.5 59.1 32.4 53.1 32.1 50.3 36 47.8 31.6 41.2 32 39.2 36.6 33.1 36.9 27 37.4 21 38.3 18.9 38.6 4.6 41 8.8 45.2 9.8 47.1 12.5 48.2 14.4 49.1 17 50.4 19.6 51.7 22 53.2 26.1 55.8 29.7 59.6 29.6 64.7V64.8C29.6 65.7 32.9 66 33.6 66 35.5 66.3 37.4 66.4 39.3 66.5 43.5 66.8 47.6 66.8 51.8 66.8 55.8 66.8 59.8 66.7 63.7 66.4 65.6 66.3 67.6 66.1 69.5 65.7 69.9 65.6 72.3 65.4 72.3 64.7V64.6C72.3 59 76.5 55.2 80.9 52.6 83.2 51.2 85.6 50.1 88 48.9 89.7 48 93 46.7 93.4 44.6 93.9 44.4 94.1 44 93.9 43.4M50.7 37.3C52.8 33.3 59.1 33.2 60.9 37.5L61.2 38.1C60 39.4 59.3 41 59.3 42.9 58.2 42.7 57 42.8 56 43.2 54.9 40.9 52.7 39.3 50.1 39.1 50.2 38.5 50.4 37.9 50.7 37.3 50.9 37 50.4 37.9 50.7 37.3M39.9 37.6C41.3 33.1 47.8 32.7 49.7 37.1 49.7 37.2 49.6 37.3 49.6 37.4 49.4 38 49.2 38.6 49.1 39.2 46.9 39.3 44.9 40.5 43.7 42.3 42.7 41.9 41.6 41.8 40.5 42 39.6 40.6 39.4 39 39.9 37.6M36.6 37.8C37.4 37.8 38.1 37.7 38.9 37.7 38.8 38 38.8 38.3 38.7 38.6 38 38.2 37.3 37.9 36.6 37.8M21.7 48.2C18.1 47.6 14.4 47.1 11.1 45.6 10.3 45.2 8.5 44.4 9.2 43.3 9.7 42.5 10.7 42.1 11.5 41.7 14.5 40.4 17.9 39.8 21.1 39.3 25.2 38.6 29.3 38.2 33.4 37.9 30.6 38.8 28.8 41.5 28.9 44.4 26.3 44.1 23.8 45.8 23.2 48.3 22.7 48.4 22.2 48.3 21.7 48.2M24.3 48.6C25.4 44.1 32.3 44.8 32.4 49.5 29.4 49.2 26.7 48.9 24.3 48.6 24.3 48.6 26.7 48.9 24.3 48.6M33.3 49.2C33.2 47.1 31.8 45.4 29.9 44.7 29.4 40 34.9 36.9 38.6 39.7 38.7 40.6 38.9 41.4 39.3 42.1 36.1 43.1 34.1 46.3 34.6 49.6 34.2 49.5 33.8 49.4 33.3 49.2 33.3 49.2 33.8 49.4 33.3 49.2M46.9 50.1S39.2 49.9 35.7 49.7C35 46.1 37.9 42.7 41.6 42.8 45.3 43 47.9 46.6 46.9 50.1 43 50 46.9 50.1 46.9 50.1M51 50.1H47.9C48.6 47.2 47.2 44 44.5 42.6 47.2 38.9 53 39.5 54.9 43.6 52.6 44.9 51.2 47.5 51.4 50.1zM64 49.8C60.4 50 56.6 50.1 52.5 50.1 52.2 46.9 54.7 43.9 57.9 43.8 61.3 43.7 64.1 46.5 64 49.8 60.4 50 64 49.7 64 49.8M66.4 49.1C65.9 49.1 65.4 49 65 48.9 64.7 46.2 62.8 43.9 60.3 43.1 60.2 40.9 61.4 38.7 63.4 37.6 67.6 35.3 73 38.5 72.6 43.5 69.9 43.8 67.9 46.2 68 48.9 67.4 49 66.9 49.1 66.4 49.1M77.1 48.7C74.6 49 71.9 49.3 69 49.5 68.4 47.1 70.2 44.6 72.7 44.5 75.1 44.3 77.2 46.3 77.1 48.7 74.7 49 77.1 48.6 77.1 48.7M92.9 44C92.6 44.8 91.5 45.3 90.8 45.6 89.5 46.2 88.1 46.6 86.7 46.9 83.9 47.6 81 48.1 78.1 48.5 78.1 45.9 76 43.7 73.5 43.5 73.6 41.6 73 39.7 71.7 38.2 76.1 38.7 80.5 39.1 84.8 40.1 86.6 40.5 88.4 40.9 90.1 41.6 91 41.9 92.5 42.5 92.9 43.4 93 43.6 93 43.8 92.9 44 92.9 44.1 93 43.9 92.9 44" fill="#000000" data-fill-palette-color="accent"></path></svg></g></svg></g><g></g></svg></g><defs></defs></svg><rect width="360.1480439177792" height="247.2" fill="none" stroke="none" visibility="hidden"></rect></g></svg></g></svg>